<svg width="640" height="320" viewBox="0 0 640 320" fill="none" xmlns="http://www.w3.org/2000/svg">
  <defs>
    <linearGradient id="bg" x1="0" y1="0" x2="640" y2="320" gradientUnits="userSpaceOnUse">
      <stop stop-color="#F8FBFF"/>
      <stop offset="1" stop-color="#E7EEF9"/>
    </linearGradient>
    <linearGradient id="card" x1="0" y1="0" x2="1" y2="1">
      <stop stop-color="#2563EB"/>
      <stop offset="1" stop-color="#1D4ED8"/>
    </linearGradient>
    <linearGradient id="accent" x1="0" y1="0" x2="1" y2="1">
      <stop stop-color="#FACC15"/>
      <stop offset="1" stop-color="#F59E0B"/>
    </linearGradient>
  </defs>
  <rect width="640" height="320" rx="24" fill="url(#bg)"/>
  <rect x="168" y="64" width="304" height="190" rx="30" fill="white" opacity="0.96"/>
  <circle cx="248" cy="124" r="44" fill="#DBEAFE"/>
  <path d="M238 124L245 131L260 114" stroke="url(#card)" stroke-width="10" stroke-linecap="round" stroke-linejoin="round"/>
  <rect x="316" y="96" width="126" height="18" rx="9" fill="#E2E8F0"/>
  <rect x="316" y="124" width="92" height="14" rx="7" fill="#BFDBFE"/>
  <rect x="204" y="178" width="220" height="24" rx="12" fill="url(#card)"/>
  <circle cx="468" cy="112" r="26" fill="url(#accent)"/>
  <path d="M468 96L472.8 106.4L484 108L476 116.2L478 128L468 122.6L458 128L460 116.2L452 108L463.2 106.4L468 96Z" fill="white"/>
  <path d="M484 170C484 185.464 471.464 198 456 198C440.536 198 428 185.464 428 170C428 154.536 440.536 142 456 142C471.464 142 484 154.536 484 170Z" fill="#DBEAFE"/>
  <path d="M456 154V170L466 178" stroke="#2563EB" stroke-width="8" stroke-linecap="round" stroke-linejoin="round"/>
</svg>