<svg xmlns="http://www.w3.org/2000/svg" viewBox="0 0 64 64">
    <rect width="64" height="64" rx="16" fill="#2563eb"/>
    <circle cx="48" cy="16" r="7" fill="#facc15"/>
    <path
        fill="#ffffff"
        d="M32 47c-10.1 0-18-6.5-18-15s7.9-15 18-15 18 6.5 18 15-7.9 15-18 15Zm0-8.3c5 0 8.6-2.8 8.6-6.7S37 25.3 32 25.3 23.4 28.1 23.4 32 27 38.7 32 38.7Z"
    />
    <path
        fill="#bfdbfe"
        d="M32 35.2c-2.5 0-4.4-1.3-4.4-3.2s1.9-3.2 4.4-3.2 4.4 1.3 4.4 3.2-1.9 3.2-4.4 3.2Z"
    />
</svg>
